<svg width="18" height="19" viewBox="0 0 18 19" fill="none" xmlns="http://www.w3.org/2000/svg">
<mask id="path-1-outside-1_1_361" maskUnits="userSpaceOnUse" x="-0.239838" y="-0.52002" width="18" height="18" fill="black">
<rect fill="white" x="-0.239838" y="-0.52002" width="18" height="18"/>
<path d="M17.2578 15.0708C16.7177 14.5894 16.245 14.0375 15.8522 13.43C15.4233 12.5914 15.1663 11.6756 15.0962 10.7364V7.96998C15.0999 6.49472 14.5647 5.06889 13.5913 3.96036C12.6179 2.85184 11.2731 2.13694 9.80976 1.94998V1.22758C9.80976 1.0293 9.731 0.83915 9.59079 0.698947C9.45059 0.558745 9.26044 0.47998 9.06216 0.47998C8.86388 0.47998 8.67373 0.558745 8.53353 0.698947C8.39333 0.83915 8.31456 1.0293 8.31456 1.22758V1.96118C6.86431 2.16162 5.53583 2.88084 4.57518 3.98564C3.61453 5.09044 3.08681 6.50594 3.08976 7.96998V10.7364C3.01962 11.6756 2.7626 12.5914 2.33376 13.43C1.94786 14.0361 1.48267 14.5879 0.950562 15.0708C0.890828 15.1233 0.842953 15.1879 0.810124 15.2603C0.777295 15.3327 0.760263 15.4113 0.760162 15.4908V16.2524C0.760162 16.4009 0.819162 16.5433 0.924182 16.6484C1.0292 16.7534 1.17164 16.8124 1.32016 16.8124H16.8882C17.0367 16.8124 17.1791 16.7534 17.2841 16.6484C17.3892 16.5433 17.4482 16.4009 17.4482 16.2524V15.4908C17.4481 15.4113 17.431 15.3327 17.3982 15.2603C17.3654 15.1879 17.3175 15.1233 17.2578 15.0708ZM1.92496 15.6924C2.44599 15.1891 2.90474 14.625 3.29136 14.0124C3.83154 12.9996 4.14672 11.8822 4.21536 10.7364V7.96998C4.19315 7.31368 4.30324 6.65962 4.53907 6.04675C4.77489 5.43388 5.13164 4.87474 5.58806 4.40261C6.04448 3.93049 6.59124 3.55503 7.19578 3.29861C7.80032 3.04219 8.45029 2.91005 9.10696 2.91005C9.76364 2.91005 10.4136 3.04219 11.0181 3.29861C11.6227 3.55503 12.1694 3.93049 12.6259 4.40261C13.0823 4.87474 13.439 5.43388 13.6749 6.04675C13.9107 6.65962 14.0208 7.31368 13.9986 7.96998V10.7364C14.0672 11.8822 14.3824 12.9996 14.9226 14.0124C15.3092 14.625 15.7679 15.1891 16.289 15.6924H1.92496Z"/>
</mask>
<path d="M17.2578 15.0708C16.7177 14.5894 16.245 14.0375 15.8522 13.43C15.4233 12.5914 15.1663 11.6756 15.0962 10.7364V7.96998C15.0999 6.49472 14.5647 5.06889 13.5913 3.96036C12.6179 2.85184 11.2731 2.13694 9.80976 1.94998V1.22758C9.80976 1.0293 9.731 0.83915 9.59079 0.698947C9.45059 0.558745 9.26044 0.47998 9.06216 0.47998C8.86388 0.47998 8.67373 0.558745 8.53353 0.698947C8.39333 0.83915 8.31456 1.0293 8.31456 1.22758V1.96118C6.86431 2.16162 5.53583 2.88084 4.57518 3.98564C3.61453 5.09044 3.08681 6.50594 3.08976 7.96998V10.7364C3.01962 11.6756 2.7626 12.5914 2.33376 13.43C1.94786 14.0361 1.48267 14.5879 0.950562 15.0708C0.890828 15.1233 0.842953 15.1879 0.810124 15.2603C0.777295 15.3327 0.760263 15.4113 0.760162 15.4908V16.2524C0.760162 16.4009 0.819162 16.5433 0.924182 16.6484C1.0292 16.7534 1.17164 16.8124 1.32016 16.8124H16.8882C17.0367 16.8124 17.1791 16.7534 17.2841 16.6484C17.3892 16.5433 17.4482 16.4009 17.4482 16.2524V15.4908C17.4481 15.4113 17.431 15.3327 17.3982 15.2603C17.3654 15.1879 17.3175 15.1233 17.2578 15.0708ZM1.92496 15.6924C2.44599 15.1891 2.90474 14.625 3.29136 14.0124C3.83154 12.9996 4.14672 11.8822 4.21536 10.7364V7.96998C4.19315 7.31368 4.30324 6.65962 4.53907 6.04675C4.77489 5.43388 5.13164 4.87474 5.58806 4.40261C6.04448 3.93049 6.59124 3.55503 7.19578 3.29861C7.80032 3.04219 8.45029 2.91005 9.10696 2.91005C9.76364 2.91005 10.4136 3.04219 11.0181 3.29861C11.6227 3.55503 12.1694 3.93049 12.6259 4.40261C13.0823 4.87474 13.439 5.43388 13.6749 6.04675C13.9107 6.65962 14.0208 7.31368 13.9986 7.96998V10.7364C14.0672 11.8822 14.3824 12.9996 14.9226 14.0124C15.3092 14.625 15.7679 15.1891 16.289 15.6924H1.92496Z" fill="#EFF2F8"/>
<path d="M17.2578 15.0708C16.7177 14.5894 16.245 14.0375 15.8522 13.43C15.4233 12.5914 15.1663 11.6756 15.0962 10.7364V7.96998C15.0999 6.49472 14.5647 5.06889 13.5913 3.96036C12.6179 2.85184 11.2731 2.13694 9.80976 1.94998V1.22758C9.80976 1.0293 9.731 0.83915 9.59079 0.698947C9.45059 0.558745 9.26044 0.47998 9.06216 0.47998C8.86388 0.47998 8.67373 0.558745 8.53353 0.698947C8.39333 0.83915 8.31456 1.0293 8.31456 1.22758V1.96118C6.86431 2.16162 5.53583 2.88084 4.57518 3.98564C3.61453 5.09044 3.08681 6.50594 3.08976 7.96998V10.7364C3.01962 11.6756 2.7626 12.5914 2.33376 13.43C1.94786 14.0361 1.48267 14.5879 0.950562 15.0708C0.890828 15.1233 0.842953 15.1879 0.810124 15.2603C0.777295 15.3327 0.760263 15.4113 0.760162 15.4908V16.2524C0.760162 16.4009 0.819162 16.5433 0.924182 16.6484C1.0292 16.7534 1.17164 16.8124 1.32016 16.8124H16.8882C17.0367 16.8124 17.1791 16.7534 17.2841 16.6484C17.3892 16.5433 17.4482 16.4009 17.4482 16.2524V15.4908C17.4481 15.4113 17.431 15.3327 17.3982 15.2603C17.3654 15.1879 17.3175 15.1233 17.2578 15.0708ZM1.92496 15.6924C2.44599 15.1891 2.90474 14.625 3.29136 14.0124C3.83154 12.9996 4.14672 11.8822 4.21536 10.7364V7.96998C4.19315 7.31368 4.30324 6.65962 4.53907 6.04675C4.77489 5.43388 5.13164 4.87474 5.58806 4.40261C6.04448 3.93049 6.59124 3.55503 7.19578 3.29861C7.80032 3.04219 8.45029 2.91005 9.10696 2.91005C9.76364 2.91005 10.4136 3.04219 11.0181 3.29861C11.6227 3.55503 12.1694 3.93049 12.6259 4.40261C13.0823 4.87474 13.439 5.43388 13.6749 6.04675C13.9107 6.65962 14.0208 7.31368 13.9986 7.96998V10.7364C14.0672 11.8822 14.3824 12.9996 14.9226 14.0124C15.3092 14.625 15.7679 15.1891 16.289 15.6924H1.92496Z" stroke="#EFF2F8" stroke-width="0.5" mask="url(#path-1-outside-1_1_361)"/>
<mask id="path-2-outside-2_1_361" maskUnits="userSpaceOnUse" x="6.63135" y="16.406" width="5" height="3" fill="black">
<rect fill="white" x="6.63135" y="16.406" width="5" height="3"/>
<path d="M9.13215 18.6828C9.48491 18.6747 9.82344 18.5421 10.0878 18.3084C10.3522 18.0747 10.5255 17.7551 10.5769 17.406H7.63135C7.68425 17.7646 7.86561 18.0917 8.14168 18.3266C8.41775 18.5615 8.76973 18.688 9.13215 18.6828V18.6828Z"/>
</mask>
<path d="M9.13215 18.6828C9.48491 18.6747 9.82344 18.5421 10.0878 18.3084C10.3522 18.0747 10.5255 17.7551 10.5769 17.406H7.63135C7.68425 17.7646 7.86561 18.0917 8.14168 18.3266C8.41775 18.5615 8.76973 18.688 9.13215 18.6828V18.6828Z" fill="#EFF2F8"/>
<path d="M9.13215 18.6828C9.48491 18.6747 9.82344 18.5421 10.0878 18.3084C10.3522 18.0747 10.5255 17.7551 10.5769 17.406H7.63135C7.68425 17.7646 7.86561 18.0917 8.14168 18.3266C8.41775 18.5615 8.76973 18.688 9.13215 18.6828V18.6828Z" stroke="#EFF2F8" stroke-width="0.5" mask="url(#path-2-outside-2_1_361)"/>
</svg>
